<?xml version="1.0" encoding="UTF-8"?>
<svg id="Layer_2" xmlns="http://www.w3.org/2000/svg" version="1.1" viewBox="0 0 435.4 763.9">
  <!-- Generator: Adobe Illustrator 30.2.1, SVG Export Plug-In . SVG Version: 2.1.1 Build 1)  -->
  <defs>
    <style>
      .st0 {
        fill: #fd00fd;
      }

      .st1 {
        fill: #0600fa;
      }

      .st2 {
        fill: #01fc00;
      }

      .st3 {
        fill: #fe0000;
      }

      .st4 {
        fill: #fcfa01;
      }
    </style>
  </defs>
  <path id="zone-body" class="st3" d="M109.9,7.5c6.7,27.3,15.9,54,28.3,79.7,12.1,25.1,24.4,38.7,50.3,49.5,9.9,8,19.9,14.7,31.6,20.7,11.5-5.9,21.5-12.9,31.5-21.2,25.7-11.3,37.4-24.8,49-50,11.4-24.8,19.4-50.5,25.3-76.7l28.2,14.2c-22.3,67.7-22.7,133.2,16.3,195.4,9.3,14.9,21.4,27.1,35.8,36.2l-2.6,57.2-7.5,127-1,96.1.6,120.8c5.5,14.4,10.9,27.8,12.5,42.2-3.7,17.3-8.5,34.5-14.8,51.5l-117.5-3.4-119.1.5-110.2,4.6c-7.8-18.4-14.6-36.4-19.9-55.1,5.1-13.2,10.5-25.9,17.1-39.4l.3-154.7-4.3-115.1-4.3-132.2c42.8-26.4,64.9-83.8,65.6-132.8.6-35-7.1-68.8-20.3-100.3l29.1-14.8h0Z"/>
  <path id="zone-panels" class="st2" d="M434.8,267.5l-1.1,23.1-1.6,32.1-7.1,116.8-5,103-2.6,63.1-1.6,44.9-2.4,46.9c-.3,6.3-.7,12.3-1.5,18.1,0-5.2-3.1-11.7-3.7-17-1.6-14.4-7-27.8-12.5-42.2l-.6-120.8,1-96.1,7.5-127,2.6-57.2c8.5,5.4,19.6,7.7,28.7,12.1h0ZM.8,267.2l.8,19.5c2,47.5,5.5,94.1,6.2,141.9.8,58.5,4.5,115.6,6.3,173.9l1.6,53,1.5,16.1c1.7,18.3,2.1,36.1,1.6,54,1.2-10,4.3-19.7,7.8-28.9,5.1-13.2,10.5-25.9,17.1-39.4l.3-154.7-4.3-115.1-4.3-132.2c-10.3,6.4-23.4,7.8-34.7,11.8h0Z"/>
  <path id="zone-inner" class="st0" d="M408.1,698.5c.6,5.3,3.6,11.8,3.7,17l.3,23.8c.1,8.1-1.6,16.4-3.3,24.3-38-3.1-74.3-6.4-112.1-7.2l-91-1.9c-10.3-.2-20-.9-29.9-2.5-7.4-1.2-14.4-2.5-22.2-2.5-26.7.1-52.5,2.6-79,6.5l-52.1,7.7c-3.4-12.7-5.4-25.7-3.9-38.3,1.2-10,4.3-19.7,7.8-28.9,5.4,18.7,12.1,36.7,19.9,55.1l110.2-4.6,119.1-.5,117.5,3.4c6.2-17,11.1-34.2,14.8-51.5h0ZM306.6,2.4l-12.2,13.7c-9.3,10.4-21.4,17.1-34.8,21.4-28.7,9.3-60.1,8.6-88.3-2.1-12.8-4.9-24.5-11.8-32.9-22.3L128.1.3c-.6-.7-2.4,0-3.2,0,6.2,35.4,19,79,39.8,109.2,6.2,9,15.7,13.1,24.6,18.8,10.2,6.5,18.7,15.2,30.7,19.1,11.6-3.7,20.2-12.5,30.2-19.3,8.4-5.8,17.9-9.7,23.9-18.5,19.8-29.2,32.2-73.7,36.7-107.9-1-.1-3.5.1-4.1.9h0Z"/>
  <path id="zone-cuffs" class="st4" d="M434.8,267.5c-9.1-4.4-20.2-6.7-28.7-12.1-14.3-9.2-26.4-21.4-35.8-36.2-39-62.2-38.5-127.8-16.3-195.4,4.6,2.3,10.7,2.4,14.9,7.3-9.3,26-13.9,52.6-14.2,80.6-.6,52.1,24.4,122.4,80.7,138.9l-.7,17h0ZM66.4,29.1c5.9,15.2,10.3,30.5,13,46.8,1.8,11,4.1,21.3,4.9,32.5,2.6,34.6-6.1,69.7-24.1,99.1-13.7,22.5-34.3,37.1-60,42.4-.8,6.1.3,11.9.5,17.3,11.2-4,24.3-5.5,34.7-11.8,42.8-26.4,64.9-83.8,65.6-132.8.6-35-7.1-68.8-20.3-100.3-4.2,2.2-10,2.3-14.4,6.8h0Z"/>
  <path id="zone-collar" class="st1" d="M124.9.3c6.2,35.4,19,79,39.8,109.2,6.2,9,15.7,13.1,24.6,18.8,10.2,6.5,18.7,15.2,30.7,19.1,11.6-3.7,20.2-12.5,30.2-19.3,8.4-5.8,17.9-9.7,23.9-18.5,19.8-29.2,32.2-73.7,36.7-107.9,4.3.4,11.2,5.9,15.1,7.9-6,26.2-13.9,51.8-25.3,76.7-11.6,25.3-23.3,38.7-49,50-9.9,8.3-20,15.3-31.5,21.2-11.7-6-21.7-12.7-31.6-20.7-25.8-10.8-38.2-24.5-50.3-49.5-12.4-25.7-21.7-52.4-28.3-79.7,3.8-1.9,10.8-7.7,15-7.2h0Z"/>
  <path id="zone-collar-inner" class="st2" d="M325.8,9.5c-6,26.2-13.9,51.8-25.3,76.7-11.6,25.3-23.3,38.7-49,50-9.9,8.3-20,15.3-31.5,21.2-11.7-6-21.7-12.6-31.6-20.7-25.8-10.8-38.2-24.5-50.3-49.5-12.4-25.7-21.6-52.4-28.3-79.7,1.8-.9,4.3-2.7,7-4.3,1.9,9.9,4,18.1,5.6,23.9,3.3,11.8,7,21.7,10.9,32.5,2.1,5.6,3.1,8.4,4.3,11.4,6.6,16.1,16.4,40.1,38.8,55,2.8,1.8,7.2,4.5,13.4,7,3.7,3.2,8.1,6.7,13.3,10.1,6.1,3.9,11.8,6.9,16.9,9.1,7.5-3.3,15.8-8,24.2-14.6,2-1.6,4-3.3,5.7-4.9,4.7-2.2,8.6-4.4,11.5-6.1,4.3-2.6,7.1-4.3,10.5-7.3,2.9-2.6,5.1-5.2,6.2-6.5,0,0,1.4-1.8,2.8-3.7,16.6-23.9,28.4-64.6,28.4-64.6,2.6-10.4,6.4-23.5,9.8-39.2,2.5,1.6,5,3.2,6.8,4.1Z"/>
  <path id="zone-collar-outer" class="st4" d="M319.1,5.4c-3.3,15.7-7.2,28.8-9.8,39.2,0,0-11.8,40.7-28.4,64.6-1.3,1.9-2.8,3.7-2.8,3.7-1.1,1.3-3.2,3.9-6.2,6.5-3.4,3-6.2,4.7-10.5,7.3-2.9,1.7-6.8,3.9-11.5,6.1-1.8,1.6-3.7,3.3-5.7,4.9-8.3,6.6-16.7,11.3-24.2,14.6-5-2.2-10.8-5.2-16.9-9.1-5.2-3.4-9.6-6.9-13.3-10.1-6.1-2.5-10.6-5.2-13.4-7-22.5-14.9-32.3-38.9-38.8-55-1.2-2.9-2.2-5.7-4.3-11.4-4-10.8-7.6-20.6-10.9-32.5-1.7-5.9-3.7-14-5.6-23.9,2.9-1.7,5.9-3.2,8.1-2.9,6.2,35.4,19,79,39.8,109.2,6.2,9,15.7,13.1,24.6,18.8,10.2,6.5,18.7,15.2,30.6,19.1,11.6-3.7,20.2-12.5,30.2-19.3,8.4-5.8,17.9-9.7,23.9-18.5,19.8-29.2,32.2-73.7,36.7-108,2.3.2,5.4,2,8.4,3.8Z"/>
  <path id="zone-collar-middle" class="st3" d="M319.5,5.6c-2.3,10.8-4.8,20.3-7.1,28.8-1,3.6-1.9,7.1-2.7,10.2-.1.4-12,41.1-28.5,64.7-1.3,1.9-2.8,3.7-2.8,3.7-1.9,2.3-4.1,4.6-6.2,6.5-3.5,3.1-6.5,4.9-10.6,7.4-3.7,2.2-7.5,4.2-11.5,6.1-1.8,1.7-3.8,3.3-5.7,4.9-7.4,5.9-15.5,10.8-24.3,14.7h-.2c0,0-.2,0-.2,0-5.9-2.6-11.6-5.7-16.9-9.2-4.6-3-9.1-6.4-13.3-10.1-4.7-1.9-9.2-4.3-13.3-7.1-22.6-15-32.5-39.2-39-55.2-1.2-3-2.2-5.8-4.3-11.4-3.9-10.6-7.6-20.7-11-32.5-2.2-7.7-4-15.7-5.6-23.8.3-.2.6-.4.9-.5,1.5,8.2,3.4,16.2,5.6,24.1,3.3,11.8,7,21.8,10.9,32.5,2.1,5.6,3.1,8.4,4.3,11.3,6.5,15.9,16.3,39.9,38.6,54.8,4.1,2.7,8.5,5.1,13.3,7h.1c4.2,3.7,8.6,7.1,13.2,10.1,5.3,3.4,10.8,6.5,16.6,9,8.6-3.8,16.6-8.7,23.9-14.5,2-1.5,3.9-3.2,5.7-4.9h.1c3.9-1.9,7.8-4,11.4-6.1,4.1-2.5,7-4.2,10.5-7.2,2.1-1.9,4.2-4.1,6.1-6.4,0,0,1.4-1.8,2.7-3.6,16.4-23.5,28.2-64,28.4-64.4.8-3.2,1.7-6.6,2.7-10.2,2.3-8.6,4.8-18.2,7.1-29.1.3.2.6.4.9.6Z"/>

  <path id="zone-cuffs-outer" class="st4" d="M435.4,251.1v3.8c-.1,0-.2,2-.2,2v2.6c-6.8-2.1-14.7-5.3-23-10.2-4-2.4-16.2-9.9-28.2-23.9-12.3-14.3-17.7-27.6-23.2-41.2-13.9-34.7-14.6-64.3-14.2-74.3,0-2.1.4-9.9,1.4-19.9.5-5,1.1-10.6,2.2-17.8,1.6-9.8,3.4-17.1,4.8-22.7,1.6-6.2,3.7-13.9,6.6-22.5.7.3,1.4.7,2.1,1.1.6.3,1.2.7,1.8,1,1.2.7,2.3,1.5,3.5,2.4-9.6,27.2-14.3,54.6-14.2,83.7.1,51.1,25.5,119.9,80.7,135.9h0ZM92.9,107.6c-.8-9-2.4-19.8-2.4-19.8-.7-4.5-1.7-10.6-3.1-17.7-1.4-6.9-2.7-13.5-4.9-21.3-1.8-6.1-4.4-14.2-8.6-23.5-.8.3-1.7.6-2.5,1-.6.3-1.2.6-1.8,1-1.1.7-2.2,1.6-3.3,2.8,8.6,19.5,12,39.6,15.6,60.1,3.8,21.8,4.2,42.5-.5,64.2C71.6,198.8,48.6,241,.2,250.5c-.1,1.2-.2,2.5-.2,3.6,0,.7,0,1.4,0,2,0,1,0,1.9.1,2.8,8.1-1.3,19.9-4.3,32.4-11.4,30.4-17.4,42-46.9,49.3-65.3,0,0,14.4-36.4,11-74.6Z"/>
  <path id="zone-cuffs-middle" class="st1" d="M77.8,30.4s-.9-3-1.9-5.7c-1.5.6-3.1,1.1-4.6,1.7.5,1.2,1.2,2.9,2,5,2.3,5.8,8.7,22.9,13.2,48.5,2.3,13.1,4.4,25.1,4.2,41.6-.2,17.4-2.8,30.5-3.6,34.3-1.5,7-10.3,47.3-39.5,76.5,0,0-15.3,15.4-31.4,20.6-5.1,1.6-10.3,2.6-10.3,2.6-2.4.4-4.4.6-6,.8,0,1.5.1,2.9.2,4.4,1.6-.2,4-.5,6.8-1,5.3-1,12.6-2.4,20.7-6.3,3.7-1.8,6.3-3.6,8.5-5,5.9-3.9,9.8-7.6,12.6-10.2,4.1-3.9,7.9-8,11.4-12.4,3.7-4.6,7-9.4,10-14.5,3.2-5.3,6.1-10.8,8.6-16.4,10.2-22.4,15.9-48.6,16.2-73.6.4-34.7-8.6-66.3-17.3-90.8h0ZM429.3,255.4c-1.4-.4-2.7-.9-4-1.4-1.3-.5-2.6-1-3.8-1.6-2.2-1-4.3-2.1-6.4-3.2-2.1-1.2-4.1-2.4-6.1-3.7-2-1.3-3.9-2.7-5.8-4.2-1.9-1.5-3.8-3-5.5-4.6-1.8-1.6-3.6-3.3-5.3-5-1.7-1.7-3.4-3.5-5-5.4-1.6-1.8-3.2-3.7-4.7-5.7-1.5-1.9-3-3.9-4.4-6-1.4-2.1-2.8-4.1-4.1-6.3-1.3-2.1-2.6-4.3-3.8-6.5-1.2-2.2-2.4-4.5-3.5-6.8-1.1-2.3-2.2-4.6-3.2-6.9-1-2.4-2-4.7-2.9-7.1-.9-2.4-1.8-4.8-2.6-7.3-.8-2.4-1.6-4.9-2.3-7.4-.7-2.5-1.4-5-2-7.5-.6-2.5-1.1-5-1.7-7.5-.5-2.5-1-5-1.4-7.6-.4-2.5-.7-5-1-7.6-.3-2.5-.5-5-.7-7.5-.2-2.5-.3-5-.4-7.5,0-2-.1-3.9-.1-5.9,0-6.8.2-13.6.7-20.4.5-6.7,1.3-13.4,2.3-20.1,1-6.6,2.3-13.2,3.9-19.7,1.6-6.8,3.6-13.5,5.8-20.2.7-2.3,1.4-4.6,2.3-6.8-1.3-.7-2.7-1.4-4-1.9,0,.3-.2.5-.2.8-.1.4-1.4,4.6-1.5,5-9.6,32.5-11.9,52.8-11.9,52.8-1.8,16-1.4,28.3-1.1,35.2.4,9.2,1,21.4,4.5,37,2.1,9.3,5.7,21.6,12.2,35.5,3,7.4,7.3,16.2,13.7,25.4,7.4,10.6,14.4,17.3,18.6,21.3,8,7.6,13.2,10.5,15.3,11.9,3.4,2.2,7.4,3.7,8.5,4.2,2.2,1,5.4,2.4,9.6,3.7,3.1,1,5.7,1.6,7.7,2v-3.9c-1.9-.4-3.8-.9-5.8-1.5Z"/>
  <path id="zone-cuffs-piping" class="st5" d="M435.3,254.9v2c-2.1-.4-4.1-.9-6-1.5-1.4-.4-2.7-.9-4-1.4-1.3-.5-2.6-1-3.8-1.6-2.2-1-4.3-2.1-6.4-3.2-2.1-1.2-4.1-2.4-6.1-3.7-2-1.3-3.9-2.7-5.8-4.2-1.9-1.5-3.8-3-5.5-4.6-1.8-1.6-3.6-3.3-5.3-5-1.7-1.7-3.4-3.5-5-5.4-1.6-1.8-3.2-3.7-4.7-5.7-1.5-1.9-3-3.9-4.4-6-1.4-2.1-2.8-4.1-4.1-6.3-1.3-2.1-2.6-4.3-3.8-6.5-1.2-2.2-2.4-4.5-3.5-6.8-1.1-2.3-2.2-4.6-3.2-6.9-1-2.4-2-4.7-2.9-7.1-.9-2.4-1.8-4.8-2.6-7.3-.8-2.4-1.6-4.9-2.3-7.4-.7-2.5-1.4-5-2-7.5-.6-2.5-1.1-5-1.7-7.5-.5-2.5-1-5-1.4-7.6-.4-2.5-.7-5-1-7.6-.3-2.5-.5-5-.7-7.5-.2-2.5-.3-5-.4-7.5,0-2-.1-3.9-.1-5.9,0-6.8.2-13.6.7-20.4.5-6.7,1.3-13.4,2.3-20.1,1-6.6,2.3-13.2,3.9-19.7,1.6-6.8,3.6-13.5,5.8-20.2.7-2.3,1.4-4.6,2.3-6.8.6.3,1.2.7,1.8,1-.5,1.4-1,2.8-1.5,4.3-.2.7-.4,1.4-.6,2.1-2.3,7.2-4.2,13.8-5.7,20-1.5,6.4-2.9,13-3.9,19.5-1,6.5-1.8,13.2-2.3,19.9-.5,6.6-.7,13.4-.7,20.3,0,1.9,0,3.9.1,5.8,0,2.4.2,4.9.4,7.4.2,2.5.4,5,.7,7.5.3,2.5.6,5,1,7.5.4,2.5.8,5,1.3,7.5.5,2.5,1,5,1.6,7.5.6,2.5,1.2,4.9,1.9,7.4.7,2.5,1.5,4.9,2.2,7.3.8,2.4,1.7,4.8,2.5,7.2.9,2.4,1.9,4.7,2.8,7,1,2.3,2.1,4.6,3.1,6.9,1.1,2.2,2.2,4.5,3.4,6.7,1.2,2.2,2.5,4.4,3.7,6.4,1.3,2.1,2.6,4.2,4,6.2,1.4,2,2.8,4,4.3,5.9,1.5,1.9,3,3.8,4.6,5.6,1.6,1.8,3.2,3.6,4.9,5.2,1.7,1.7,3.4,3.3,5.2,4.9,1.8,1.6,3.6,3.1,5.4,4.5,1.9,1.4,3.8,2.8,5.7,4.1,2,1.3,4,2.5,6,3.6,2,1.1,4.2,2.2,6.3,3.2,1.2.6,2.4,1.1,3.7,1.6,1.3.5,2.6,1,3.9,1.4,1.7.6,3.6,1,5.4,1.4h0ZM427.3,258.8c-4.2-1.3-7.3-2.7-9.6-3.7-1-.4-5.1-2-8.5-4.2-2.2-1.4-7.3-4.3-15.3-11.9-4.2-3.9-11.2-10.7-18.6-21.3-6.4-9.2-10.8-18-13.7-25.4-6.4-13.9-10-26.2-12.2-35.5-3.6-15.6-4.1-27.8-4.5-37-.3-6.9-.8-19.2,1.1-35.2,0,0,2.3-20.3,11.9-52.8.1-.4,1.4-4.5,1.5-5,0-.3.2-.5.2-.8-.6-.3-1.2-.5-1.9-.7l-.3.9c-.1.4-1.4,4.6-1.5,5-9.5,32.3-12,52.9-12,53.1-1.9,16.4-1.3,29.3-1.1,35.5.4,8.5.9,21.3,4.6,37.3,2.8,12.2,6.9,24.3,12.3,35.8,3.7,9.1,8.4,17.7,13.9,25.7,7.6,10.9,14.9,17.9,18.9,21.6,7.3,6.9,12.2,10,14.8,11.6.3.2.6.4.8.5,3,1.9,6.4,3.4,8.1,4,.3.1.5.2.7.3,2.1.9,5.4,2.4,9.8,3.8,2.6.8,5.3,1.5,7.9,2.1h.3c0,0,0-2,0-2-2-.4-4.6-1.1-7.7-2h0ZM79.7,29.7c-.1-.4-.9-3.1-1.9-5.6-.7.2-1.3.3-1.9.5,1.1,2.7,1.9,5.7,1.9,5.7,8.7,24.5,17.7,56.2,17.3,90.8-.3,25.1-6.1,51.2-16.2,73.6-2.5,5.6-5.4,11.1-8.6,16.4-3,5-6.4,9.9-10,14.5-3.5,4.4-7.3,8.6-11.4,12.4-2.8,2.6-6.7,6.3-12.6,10.2-2.2,1.4-4.8,3.2-8.5,5-8.1,4-15.4,5.4-20.7,6.3-2.8.5-5.2.8-6.8,1,0,.7.1,1.3.2,2h0c2.3-.3,4.7-.6,7-1,5.1-.9,12.7-2.3,21.2-6.5,3.9-1.9,6.7-3.8,8.7-5.1,6.2-4.1,10.3-8.1,12.8-10.4,4-3.8,7.9-8.1,11.6-12.6,3.6-4.6,7-9.5,10.2-14.7,3.2-5.2,6.1-10.8,8.7-16.6,10.3-22.7,16.1-49.1,16.4-74.4.4-36.5-9.7-69.7-17.4-91.4h0ZM86.5,79.8c-4.5-25.6-10.9-42.7-13.2-48.5-.8-2.1-1.6-3.8-2-5-.6.3-1.2.6-1.8,1,.5,1.1,1.2,2.8,1.9,4.8,5.5,14,10,30.6,13.1,48.1,2.2,12.8,4.4,24.9,4.2,41.2-.2,15.6-2.3,27.9-3.5,33.9-2.2,10.8-11.7,48.2-38.9,75.5-.2.1-15.2,15.1-30.6,20.1-4.9,1.6-10,2.5-10.1,2.5-1.9.3-3.8.6-5.7.8,0,.7,0,1.4,0,2,1.5-.1,3.6-.4,6-.8,0,0,5.3-.9,10.3-2.6,16.1-5.2,31.4-20.6,31.4-20.6,29.1-29.2,38-69.5,39.5-76.5.8-3.8,3.4-16.9,3.6-34.3.2-16.5-1.9-28.5-4.2-41.6h0Z"/>
  <path id="zone-cuffs-inner" class="st3" d="M101.1,121.2c-.6,50-22.2,107.8-65.7,134.7-10.3,6.4-23.4,7.8-34.6,11.9,0-1.7-.2-3.5-.4-5.2,0-.7-.1-1.3-.2-2,0-.5,0-1-.1-1.5,8.1-1.3,19.9-4.3,32.4-11.4,30.4-17.4,42-46.9,49.3-65.3,0,0,14.4-36.4,11-74.6-.8-9-2.4-19.8-2.4-19.8-.7-4.5-1.7-10.6-3.1-17.7-1.4-6.9-2.7-13.5-4.9-21.3-1.8-6.1-4.4-14.2-8.6-23.5.7-.2,1.4-.5,2.1-.7.6-.2,1.3-.4,1.9-.5,1.3-.3,2.5-.7,3.8-1.1,11.5,31.5,20,63.6,19.5,98.2ZM412.2,249.4c-4-2.4-16.2-9.9-28.2-23.9-12.3-14.3-17.7-27.6-23.2-41.2-13.9-34.7-14.6-64.3-14.2-74.3,0-2.1.4-9.9,1.4-19.9.5-5,1.1-10.6,2.2-17.8,1.6-9.8,3.4-17.1,4.8-22.7,1.6-6.2,3.7-13.9,6.6-22.5-.6-.3-1.3-.6-2-.9-.6-.3-1.2-.5-1.9-.7-1.2-.5-2.5-.8-3.8-1.2-9.8,31-16.5,62.6-15.1,95.9,1.5,35.6,12.6,69.5,31.4,99.5,9.3,14.9,21.4,27.1,35.7,36.3,8.5,5.5,19.7,7.7,28.7,12.1l.2-5.2v-2c0,0,.1-1.2.1-1.2-6.7-2.1-14.6-5.3-22.9-10.2h0Z"/>
  <path id="zone-panels-outer" class="st6" d="M434.8,268.1l-1.1,23.1-1.6,32.1-7.1,116.8-5,103-2.6,63.1-1.6,44.9-2.4,47c-.3,6.3-.7,12.3-1.5,18.1-.3-5.6-3-12.3-3.8-18-.5-3.4-1.1-6.7-1.9-10-.5-71,.6-144.9,3.4-221.2,2.7-70.4,6.7-138.5,11.9-204.1,4.6,1.6,9.1,3.2,13.3,5.2ZM20.9,355.9c-1.3-30.9-2.8-61.7-4.3-92.6-5.4,1.4-10.8,2.7-15.8,4.5l.8,19.5c2,47.5,5.5,94.1,6.2,141.9.8,58.5,4.5,115.7,6.3,173.9l1.6,53,1.5,16.1c1.6,18,2,35.5,1.7,53,1.2-9.6,4.5-19,7.8-27.8,1.2-3.3,2.5-6.6,3.8-9.8h0c-1.7-110.6-4.8-221.2-9.6-331.6Z"/>
  <path id="zone-panels-middle" class="st2" d="M33,503.4c1.1,56.8,2.2,113.5,3.4,170.3-3,6.6-5.7,13.2-8.3,19.8-.5-12.7-.9-25.4-1.4-38.1l-1.6-52.7c-.7-23.1-1.7-46.4-2.7-68.9-1.5-34.2-3.1-69.6-3.5-104.8-.4-31.6-2.1-63.1-3.8-93.6-.8-15.9-1.7-32.3-2.4-48.6-.4-7.4-.9-14.8-1.3-22.2,4.1-1.1,8.2-2.1,12.2-3.4,1.7,42.1,3.4,84.2,5.2,126.2l4.3,115.9ZM415.9,260.8c-3.2,51.6-6,103.9-8.4,156.8-3.8,84.7-6.5,167.8-8.1,249.4,3.9,10.4,7.2,20.5,8.7,31.1.2,1.6.6,3.3,1,5,5.7-146.2,11.4-292.4,17.1-438.6-3.4-1.2-6.9-2.4-10.3-3.8Z"/>
  <path id="zone-panels-piping" class="st3" d="M428.2,265.3l-17.1,438-1.9.2c-.5-1.8-.9-3.6-1.1-5.3-1.7-12.4-5.9-24-10.6-36.2,1.6-81.2,4.3-163.4,8-244.5,2.4-52.6,5.2-105.4,8.4-156.8v-.7c4.7,1.9,9.6,3.5,14.3,5.3ZM35,503.3l-4.3-115.9c-1.7-41.8-3.4-83.7-5.1-125.5v-1.3c-5.3,1.8-10.9,3.2-16.2,4.6l1.3,21.7c.7,16.2,1.6,32.6,2.4,48.5v.4c1.7,30.4,3.3,61.8,3.8,93.3.5,35.2,2,70.7,3.5,104.9.9,21.3,2,45.5,2.7,68.8l1.6,52.7c.5,12.7,1,25.4,1.4,38.1l1.9.3c3.2-8.2,6.6-16.2,10.3-24.5-1.1-55.4-2.2-110.7-3.3-166.1Z"/>
  <path id="zone-panels-inner" class="st4" d="M409.6,467c-2.9,76.3-3.9,150.2-3.4,221.2-2.5-10.4-6.5-20.5-10.6-31.2l-.6-120.8,1-96.1,7.5-127,2.6-57.2c4.6,3,10,5,15.4,6.9-5.2,65.6-9.2,133.7-11.9,204.1ZM39.7,387.1l-4.2-131.2c-5.7,3.5-12.2,5.5-18.9,7.3,1.6,30.9,3,61.7,4.3,92.6,4.7,110.5,7.9,221,9.6,331.6,4-9.8,8.3-19.4,13.2-29.6l.3-154.7-4.3-116.1Z"/>
</svg>