<?xml version="1.0" encoding="UTF-8"?>
<svg id="Layer_1" data-name="Layer 1" xmlns="http://www.w3.org/2000/svg" width="435.405" height="764.519" viewBox="0 0 435.405 764.519">
  <path id="zone-body" d="M324.761,10.096l14.372,7.831c4.972,2.709,9.823,4.896,14.901,6.301-9.811,30.955-16.484,62.561-15.075,95.935,1.502,35.571,12.595,69.539,31.361,99.503,9.336,14.906,21.426,27.071,35.746,36.302l-2.571,57.194-7.516,126.972-.978,96.068.617,120.808c5.368,14.059,10.556,27.099,12.469,41.162-3.225,17.716-8.486,35.195-14.72,52.497l-117.517-3.364-119.076.473-110.205,4.582c-7.775-18.394-14.521-36.412-19.918-55.044,4.99-13.199,10.553-25.872,17.088-39.406l.273-154.694-4.312-116.073-4.256-131.168c43.493-26.918,65.058-84.753,65.671-134.735.424-34.578-8.053-66.631-19.521-98.17,10.482-3.409,19.9-9.16,29.323-14.803l12.144,38.811c4.844,15.48,11.247,29.844,19.064,43.96,7.667,13.845,16.871,25.813,28.338,36.274,28.386,25.893,70.219,25.826,98.367-.329,10.891-10.12,19.577-21.576,26.749-34.901,7.182-13.344,13.267-26.859,17.503-41.531l11.68-40.454Z" fill="#fe0000"/>
  <path id="zone-inner" d="M408.086,698.173c.771,5.665,3.493,12.419,3.745,18,.714,15.755,1.056,32.191-2.915,48.168-37.95-3.139-74.288-6.461-112.061-7.239l-90.894-1.872c-9.991-.206-19.45-.819-29.126-2.356-7.754-1.232-15.009-2.64-23.026-2.603-27.05.125-53.147,2.701-79.887,6.662l-51.214,7.586c-3.459-12.994-5.455-26.367-3.877-39.346,1.171-9.634,4.474-19.007,7.819-27.856,5.397,18.632,12.143,36.651,19.918,55.044l110.205-4.582,119.076-.473,117.517,3.364c6.234-17.303,11.495-34.782,14.72-52.497ZM304.035,4.411c-10.103,15.422-23.695,26.536-41.497,32.752-30.671,10.709-64.858,9.883-94.859-2.544C136.036,21.514,130.927-1.657,126.805.094c.147,4.742.953,9.518,2.406,14.496,10.789,36.98,26.045,85.925,60.916,107.225,20.084,12.268,44.432,10.891,63.321-3.077,28.35-20.965,41.878-60.256,50.82-93.113,2.216-8.143,4.602-15.694,5.512-23.542-2.084-.895-4.006-.325-5.743,2.328Z" fill="#fc00fd"/>
  <path id="zone-collar" d="M126.805.094c.147,4.742.953,9.518,2.406,14.496,10.789,36.98,26.045,85.925,60.916,107.225,20.084,12.268,44.432,10.891,63.321-3.077,28.35-20.965,41.878-60.256,50.82-93.113,2.216-8.143,4.602-15.694,5.512-23.542l10.622,4.562c1.892.813,3.66,2.055,4.36,3.451l-11.68,40.454c-4.236,14.672-10.321,28.187-17.503,41.531-7.172,13.325-15.858,24.781-26.749,34.901-28.148,26.155-69.98,26.222-98.367.329-11.468-10.46-20.671-22.429-28.338-36.274-7.817-14.115-14.22-28.48-19.064-43.96l-12.144-38.811c.942-1.213,2.506-2.489,4.639-3.394L126.805.094Z" fill="#0501fb"/>
  <path id="zone-panels" d="M434.784,268.102l-1.14,23.126-1.607,32.114-7.123,116.808-4.964,102.975-2.585,63.077-1.627,44.918-2.384,46.949c-.321,6.32-.695,12.334-1.522,18.105-.253-5.581-2.975-12.335-3.745-18-1.914-14.063-7.101-27.103-12.469-41.162l-.617-120.808.978-96.068,7.516-126.972,2.571-57.194c8.493,5.475,19.656,7.685,28.719,12.134ZM.797,267.823l.831,19.479c2.025,47.469,5.54,94.106,6.181,141.879.784,58.459,4.471,115.644,6.269,173.873l1.637,53,1.471,16.134c1.641,18.008,2.043,35.482,1.646,52.983,1.171-9.634,4.474-19.007,7.819-27.856,4.99-13.199,10.553-25.872,17.088-39.406l.273-154.694-4.312-116.073-4.256-131.168c-10.298,6.374-23.433,7.811-34.646,11.848Z" fill="#01fc00"/>
  <path id="zone-cuffs" d="M434.784,268.102c-9.064-4.449-20.226-6.659-28.719-12.134-14.32-9.231-26.41-21.396-35.746-36.302-18.766-29.964-29.859-63.933-31.361-99.503-1.409-33.374,5.264-64.979,15.075-95.935,5.136,1.42,10.109,3.52,14.912,7.318-9.652,27.235-14.272,54.603-14.208,83.696.112,51.107,25.467,119.851,80.668,135.896l-.621,16.964ZM66.29,30.111c8.632,19.543,11.977,39.58,15.572,60.135,3.809,21.782,4.239,42.488-.525,64.197C71.607,198.78,48.62,240.964.232,250.543c-.682,6.181.333,11.85.565,17.28,11.213-4.037,24.347-5.474,34.646-11.848,43.493-26.918,65.058-84.753,65.671-134.735.424-34.578-8.053-66.631-19.521-98.17-5.15,1.675-10.826,2.119-15.303,7.041Z" fill="#fcfa02"/>
</svg>