<?xml version="1.0" encoding="UTF-8"?>
<svg id="Layer_2" xmlns="http://www.w3.org/2000/svg" version="1.1" viewBox="0 0 435.4 764.5">
  <!-- Generator: Adobe Illustrator 30.2.1, SVG Export Plug-In . SVG Version: 2.1.1 Build 1)  -->
  <defs>
    <style>
      .st0 {
        fill: #04f7fa;
      }

      .st1 {
        fill: #fc00fd;
      }

      .st2 {
        fill: #01fc00;
      }

      .st3 {
        fill: #fe0000;
      }

      .st4 {
        fill: #0400fb;
      }

      .st5 {
        fill: #fcfa01;
      }
    </style>
  </defs>
  <path id="zone-body" class="st3" d="M324.7,10.2c6.1,3.9,21.8,11.9,29.3,14-9.9,31-16.5,62.6-15.1,96,1.5,35.8,12.7,70,31.8,100.1,9.3,14.6,21.2,26.6,35.4,35.7l-2.6,57.2-7.5,127-1,96.1.5,120,6.4,17.8c3.1,8.5,5.1,16.8,6.2,25.2-3.7,17.3-8.5,34.5-14.8,51.5l-117.5-3.4-119.1.5-110.2,4.6c-7.8-18.4-14.6-36.4-19.9-55.1,5.1-13.2,10.5-25.9,17.1-39.4l.3-154.7-4.3-115.1-4.3-132.2c43.2-26.5,64.9-84.2,65.7-133.7.6-34.9-7.9-67.3-19.5-99.2,10.4-3.5,20-9,29.4-14.7,8.1,33.8,27.6,77.3,56.9,98.6,16,11.6,33,20.4,52.1,27.2,27.7-10.9,57.7-26.7,74.3-52.4,15-21.9,24.4-46.1,30.3-71.5h0Z"/>
  <path id="zone-panels" class="st2" d="M35.5,256l4.3,132.2,4.3,115.1-.3,154.7c-6.6,13.5-12,26.2-17.1,39.4-3.5,9.2-6.7,18.9-7.8,28.9.4-17.8,0-35.6-1.6-54l-1.5-16.1-1.6-53c-1.8-58.2-5.5-115.4-6.3-173.9-.6-47.8-4.2-94.4-6.2-141.9l-.8-19.5c11.2-4,24.3-5.5,34.7-11.8h0ZM406.1,256l-2.6,57.2-7.5,127-1,96.1.5,120,6.4,17.8c3.1,8.5,5.1,16.8,6.2,25.2.7,5.3,3.6,11.8,3.7,17,.8-5.8,1.2-11.8,1.5-18.1l2.4-46.9,1.6-44.9,2.6-63.1,5-103,7.1-116.8,1.6-32.1,1.1-23.1c-9.1-4.4-20.2-6.7-28.7-12.1h0Z"/>
  <path id="zone-inner" class="st1" d="M408.1,699.2c.7,5.3,3.6,11.8,3.7,17l.3,23.8c.1,8.1-1.6,16.4-3.3,24.3-38-3.1-74.3-6.5-112.1-7.2l-91-1.9c-10.3-.2-20-.9-29.9-2.5-7.4-1.2-14.4-2.5-22.2-2.5-26.7.1-52.5,2.6-79,6.5l-52.1,7.7c-3.4-12.7-5.4-25.7-3.9-38.3,1.2-10,4.3-19.7,7.8-28.9,5.4,18.7,12.1,36.7,19.9,55.1l110.2-4.6,119.1-.5,117.5,3.4c6.2-17,11.1-34.2,14.8-51.5h0ZM262.6,37.2c-30.7,10.8-64.9,9.9-94.9-2.5C136,21.5,130.9-1.7,126.8.1c2.9,22.9,11.6,45,23.8,65.1,16.6,26.5,41.1,39.3,69.3,51.1,24.6-10.6,49.3-23.7,64.3-46.7,13.8-20.6,21.6-44.2,24.7-68.1-6-1.8-11.1,23.3-46.3,35.6h0Z"/>
  <path id="zone-collar" class="st4" d="M126.8.1c2.9,22.9,11.6,45,23.8,65.1,16.6,26.5,41.1,39.3,69.3,51.1,24.6-10.6,49.3-23.7,64.3-46.7,13.8-20.6,21.6-44.2,24.7-68.1,5.9,1.7,10.9,5.6,15.8,8.7-5.9,25.4-15.4,49.6-30.3,71.5-16.7,25.7-46.7,41.5-74.3,52.4-19-6.8-36-15.5-52.1-27.2-29.3-21.3-48.8-64.8-56.9-98.6,1.3-1,3-2.5,5.4-3.6L126.8.1Z"/>
  <path id="zone-cuffs" class="st5" d="M81.6,23.1c11.6,31.8,20.1,64.3,19.5,99.2-.8,49.5-22.5,107.2-65.7,133.7-10.3,6.3-23.4,7.8-34.7,11.8-.2-5.4-1.3-11.2-.5-17.3,25.7-5.3,46.2-19.9,60-42.4,18-29.4,26.7-64.5,24.1-99.1-.8-11.2-3.1-21.5-4.9-32.5-2.6-16-6.8-31.2-13-46.4,4-5.1,10.3-5.4,15.2-7.1h0ZM435.4,251.1c-56.2-16.5-81.3-86.8-80.7-138.9.3-28.1,4.9-54.4,14.2-80.7-4.8-3.9-9.8-5.9-15-7.3-9.9,31-16.5,62.6-15.1,96,1.5,35.8,12.7,70,31.8,100.1,9.3,14.6,21.2,26.6,35.4,35.7,8.5,5.4,19.6,7.7,28.7,12.1l.7-17h0Z"/>
  <path id="zone-triangle" class="st0" d="M260.4,114.1c-12.5,7.7-26.2,15.4-40.3,20-14.9-3.9-28.3-11.9-40.1-19.1l38.9,1.2h1.8c6.3,0,12.8-.2,19.6-.6,6.8-.4,13.8-.9,20-1.5Z"/>
</svg>