<?xml version="1.0" encoding="UTF-8"?>
<svg id="Layer_2" data-name="Layer 2" xmlns="http://www.w3.org/2000/svg" width="435.446" height="764.528" viewBox="0 0 435.446 764.528">
  <path id="zone-body" d="M324.684,10.232c6.055,3.927,21.836,11.902,29.339,13.979-9.855,30.963-16.498,62.595-15.094,95.982,1.506,35.824,12.702,70.031,31.76,100.129,9.252,14.613,21.242,26.634,35.374,35.655l-2.563,57.197-7.519,126.973-.981,96.062.55,119.967,6.39,17.843c3.051,8.519,5.135,16.766,6.209,25.189-3.743,17.283-8.549,34.501-14.798,51.474l-117.499-3.363-119.074.473-110.205,4.584c-7.77-18.408-14.554-36.43-19.905-55.086,5.052-13.162,10.507-25.86,17.076-39.369l.271-154.691-4.266-115.081-4.291-132.159c43.213-26.536,64.867-84.213,65.712-133.747.595-34.9-7.916-67.32-19.542-99.159,10.422-3.538,20.013-9.043,29.415-14.732,8.084,33.82,27.621,77.322,56.911,98.585,16.038,11.643,33.033,20.362,52.071,27.167,27.675-10.911,57.676-26.682,74.349-52.372,14.951-21.913,24.444-46.106,30.31-71.501Z" fill="#fe0000"/>
  <path id="zone-panels" d="M35.458,255.99l4.291,132.159,4.266,115.081-.271,154.691c-6.569,13.509-12.024,26.207-17.076,39.369-3.539,9.22-6.667,18.851-7.832,28.895.407-17.837.025-35.639-1.645-53.979l-1.47-16.14-1.638-53c-1.799-58.229-5.485-115.414-6.27-173.873-.641-47.773-4.156-94.41-6.181-141.88l-.831-19.477c11.231-4.018,24.332-5.505,34.656-11.845ZM406.062,255.977l-2.563,57.197-7.519,126.973-.981,96.062.55,119.967,6.39,17.843c3.051,8.519,5.135,16.766,6.209,25.189.672,5.269,3.613,11.762,3.688,16.976.827-5.77,1.201-11.784,1.522-18.105l2.383-46.942,1.626-44.924,2.585-63.073,4.966-102.98,7.124-116.809,1.604-32.111,1.143-23.13c-9.092-4.412-20.203-6.692-28.727-12.134Z" fill="#01fc00"/>
  <path id="zone-inner" d="M408.148,699.208c.672,5.269,3.613,11.762,3.688,16.976l.34,23.845c.115,8.103-1.626,16.431-3.26,24.308-37.971-3.11-74.29-6.45-112.055-7.226l-90.954-1.87c-10.281-.211-19.994-.858-29.94-2.492-7.441-1.222-14.446-2.499-22.151-2.465-26.741.12-52.533,2.635-78.972,6.542l-52.124,7.701c-3.433-12.687-5.351-25.692-3.883-38.344,1.165-10.044,4.293-19.675,7.832-28.895,5.351,18.656,12.134,36.677,19.905,55.086l110.205-4.584,119.074-.473,117.499,3.363c6.249-16.972,11.054-34.191,14.798-51.474ZM262.579,37.154c-30.666,10.753-64.878,9.894-94.895-2.52C136.021,21.54,130.877-1.741,126.789.103c2.92,22.941,11.576,45.047,23.83,65.082,16.588,26.517,41.095,39.328,69.259,51.077,24.592-10.633,49.324-23.749,64.306-46.681,13.757-20.589,21.592-44.232,24.738-68.071-6.025-1.764-11.101,23.287-46.344,35.644Z" fill="#fc00fd"/>
  <path id="zone-collar" d="M126.789.103c2.92,22.941,11.576,45.047,23.83,65.082,16.588,26.517,41.095,39.328,69.259,51.077,24.592-10.633,49.324-23.749,64.306-46.681,13.757-20.589,21.592-44.232,24.738-68.071,5.877,1.721,10.894,5.565,15.761,8.722-5.866,25.395-15.359,49.588-30.31,71.501-16.673,25.69-46.674,41.461-74.349,52.372-19.038-6.805-36.033-15.524-52.071-27.167-29.29-21.263-48.826-64.765-56.911-98.585,1.314-.993,3.03-2.514,5.377-3.572L126.789.103Z" fill="#0400fb"/>
  <path id="zone-cuffs" d="M81.629,23.085c11.625,31.838,20.137,64.259,19.542,99.159-.845,49.534-22.499,107.21-65.712,133.747-10.324,6.34-23.425,7.827-34.656,11.845-.23-5.401-1.291-11.161-.532-17.309,25.703-5.276,46.232-19.875,59.976-42.355,17.982-29.412,26.663-64.455,24.064-99.084-.843-11.229-3.119-21.539-4.931-32.501-2.644-15.99-6.773-31.2-12.976-46.431,4.018-5.079,10.26-5.385,15.226-7.071ZM435.446,251.146c-56.238-16.511-81.29-86.777-80.673-138.861.333-28.118,4.854-54.424,14.227-80.74-4.827-3.856-9.81-5.904-14.977-7.334-9.855,30.963-16.498,62.595-15.094,95.982,1.506,35.824,12.702,70.031,31.76,100.129,9.252,14.613,21.242,26.634,35.374,35.655,8.524,5.442,19.635,7.722,28.727,12.134l.657-16.965Z" fill="#fcfa01"/>
</svg>