<?xml version="1.0" encoding="UTF-8"?>
<svg id="Layer_2" data-name="Layer 2" xmlns="http://www.w3.org/2000/svg" width="435.42" height="764.483" viewBox="0 0 435.42 764.483">
  <path id="zone-body" d="M111.546,8.064c13.195,37.729,24.161,65.75,59.678,88.671,18.593,11.999,28.898,18.093,32.793,41.287l31.902-.274c3.212-21.5,12.199-28.814,29.487-40.034,35.009-22.721,46.858-50.318,58.445-88.351,9.398,6.013,19.444,11.675,30.073,14.916-9.698,31.003-16.433,62.539-15.008,95.932,1.528,35.819,12.698,70.026,31.768,100.128,9.253,14.606,21.241,26.633,35.372,35.653l-2.563,57.197-7.518,126.972-.978,96.068.593,120.814c5.731,14.367,10.623,27.794,12.553,42.192-3.72,17.26-8.597,34.573-14.766,51.409l-118.531-3.288-117.604.866-110.689,3.988c-7.735-17.978-14.563-36.378-19.893-54.898,5.049-13.167,10.511-25.864,17.079-39.376l.271-154.691-4.268-115.085-4.303-132.155c43.236-26.514,64.878-84.237,65.722-133.749.594-34.864-7.89-67.312-19.544-99.13,10.697-3.457,20.305-9.33,29.929-15.063Z" fill="#fe0000"/>
  <path id="zone-panels" d="M35.438,256.006l4.303,132.155,4.268,115.085-.271,154.691c-6.568,13.512-12.03,26.21-17.079,39.376-3.531,9.208-6.689,18.849-7.829,28.887.41-17.838.032-35.64-1.643-53.983l-1.474-16.133-1.693-54.011c-1.795-57.244-5.417-113.414-6.172-170.87-.641-48.747-4.287-96.369-6.284-144.788l-.766-18.568c11.233-4.001,24.314-5.507,34.64-11.84ZM406.055,255.993l-2.563,57.197-7.518,126.972-.978,96.068.593,120.814c5.731,14.367,10.623,27.794,12.553,42.192.733,5.47,2.492,11.579,3.688,16.963.828-5.771,1.203-11.783,1.523-18.104l2.38-46.944,1.629-44.922,2.585-63.074,4.966-102.98,7.123-116.809,1.604-32.111,1.14-23.132c-9.092-4.41-20.2-6.69-28.724-12.131Z" fill="#01fc00"/>
  <path id="zone-inner" d="M408.141,699.237c.733,5.47,2.492,11.579,3.688,16.963l.096,8.979c.141,13.197.069,26.271-3.058,39.138-38.536-3.223-75.637-6.421-114.01-7.307l-100.884-2.328c-9.155-.211-17.439-1.98-26.401-3.34-21.746-3.301-72.306,2.334-95.645,5.814l-49.134,7.327c-3.462-12.721-5.394-25.691-3.963-38.283,1.141-10.039,4.298-19.679,7.829-28.887,5.33,18.521,12.157,36.92,19.893,54.898l110.689-3.988,117.604-.866,118.531,3.288c6.169-16.835,11.047-34.148,14.766-51.409ZM303.665,5.023c-10.283,15.648-24.524,26.664-42.651,32.755-29.849,10.03-62.819,9.161-92.005-2.513C136.859,22.404,130.422-1.502,126.934.074c4.452,15.674,10.604,30.944,18.32,45.767,7.957,15.286,19.357,27.026,33.95,35.974,20.236,12.408,21.213,9.362,40.202,29.282l16.161-15.135c9.859-9.234,39.601-16.087,56.801-51.1,6.94-14.128,12.227-28.587,16.352-43.35-1.494-.066-3.948,1.829-5.054,3.511Z" fill="#fc00fd"/>
  <path id="zone-collar" d="M126.934.074c4.452,15.674,10.604,30.944,18.32,45.767,7.957,15.286,19.357,27.026,33.95,35.974,20.236,12.408,21.213,9.362,40.202,29.282l16.161-15.135c9.859-9.234,39.601-16.087,56.801-51.1,6.94-14.128,12.227-28.587,16.352-43.35,5.082,1.835,10.58,4.938,15.131,7.85-11.586,38.033-23.436,65.63-58.445,88.351-17.288,11.22-26.275,18.534-29.487,40.034l-31.902.274c-3.895-23.194-14.199-29.287-32.793-41.287-35.517-22.921-46.483-50.942-59.678-88.671,1.182-.997,2.842-2.319,4.969-3.28L126.934.074Z" fill="#0400fb"/>
  <path id="zone-cuffs" d="M81.616,23.127c11.654,31.818,20.138,64.266,19.544,99.13-.844,49.513-22.487,107.235-65.722,133.749-10.326,6.333-23.408,7.839-34.64,11.84-.223-5.399-1.296-11.155-.52-17.272,25.684-5.295,46.26-19.878,59.981-42.363,17.813-29.189,26.611-63.914,24.108-98.312-1.334-18.333-5.26-35.425-9.04-53.262-1.913-9.025-5.77-17.528-8.811-26.529,3.958-4.916,10.097-5.365,15.1-6.982ZM435.42,251.168c-55.191-16.003-80.585-84.843-80.681-135.902-.055-29.072,4.562-56.48,14.208-83.682-4.797-4-9.88-5.737-15.024-7.305-9.698,31.003-16.433,62.539-15.008,95.932,1.528,35.819,12.698,70.026,31.768,100.128,9.253,14.606,21.241,26.633,35.372,35.653,8.524,5.442,19.632,7.721,28.724,12.131l.641-16.956Z" fill="#fcfa01"/>
</svg>