<?xml version="1.0" encoding="UTF-8"?>
<svg id="Layer_2" data-name="Layer 2" xmlns="http://www.w3.org/2000/svg" width="435.446" height="763.87" viewBox="0 0 435.446 763.87">
  <path id="zone-body" d="M109.883,7.474c6.685,27.34,15.922,53.959,28.336,79.695,12.092,25.069,24.419,38.694,50.268,49.53,9.941,8.01,19.871,14.673,31.605,20.663,11.477-5.882,21.514-12.947,31.46-21.213,25.67-11.306,37.375-24.75,48.968-50.022,11.395-24.843,19.356-50.45,25.326-76.666l28.184,14.207c-22.273,67.651-22.727,133.209,16.271,195.403,9.314,14.855,21.418,27.093,35.76,36.248l-2.563,57.197-7.517,126.973-.978,96.068.615,120.81c5.483,14.394,10.885,27.75,12.529,42.184-3.744,17.283-8.548,34.502-14.798,51.474l-117.498-3.363-119.074.473-110.206,4.584c-7.77-18.408-14.553-36.43-19.904-55.086,5.052-13.162,10.507-25.86,17.076-39.369l.271-154.691-4.266-115.081-4.291-132.161c42.805-26.356,64.867-83.754,65.647-132.808.556-34.975-7.068-68.761-20.282-100.273l29.06-14.774Z" fill="#fe0000"/>
  <path id="zone-panels" d="M434.789,267.453l-1.143,23.13-1.604,32.111-7.124,116.809-4.966,102.98-2.585,63.073-1.627,44.924-2.383,46.942c-.321,6.32-.694,12.334-1.522,18.105-.074-5.211-3.088-11.71-3.688-16.976-1.644-14.433-7.047-27.79-12.529-42.184l-.615-120.81.978-96.068,7.517-126.973,2.563-57.197c8.525,5.442,19.635,7.721,28.727,12.134ZM.802,267.177l.831,19.477c2.025,47.47,5.54,94.107,6.181,141.88.785,58.459,4.47,115.644,6.27,173.873l1.638,53,1.47,16.14c1.67,18.34,2.052,36.141,1.645,53.979,1.165-10.044,4.293-19.675,7.832-28.895,5.052-13.162,10.507-25.86,17.076-39.369l.271-154.691-4.266-115.081-4.291-132.161c-10.316,6.352-23.43,7.823-34.656,11.848Z" fill="#01fc00"/>
  <path id="zone-inner" d="M408.148,698.55c.6,5.266,3.613,11.766,3.688,16.976l.34,23.846c.116,8.1-1.629,16.432-3.263,24.307-37.969-3.11-74.288-6.449-112.053-7.226l-90.954-1.87c-10.281-.211-19.994-.858-29.94-2.492-7.441-1.222-14.446-2.499-22.151-2.465-26.741.12-52.533,2.635-78.972,6.541l-52.124,7.701c-3.433-12.687-5.351-25.692-3.883-38.344,1.165-10.044,4.293-19.675,7.832-28.895,5.351,18.656,12.134,36.678,19.904,55.086l110.206-4.584,119.074-.473,117.498,3.363c6.249-16.972,11.053-34.191,14.798-51.474ZM306.596,2.419l-12.236,13.673c-9.265,10.353-21.359,17.056-34.796,21.406-28.721,9.298-60.089,8.588-88.299-2.118-12.84-4.873-24.467-11.811-32.942-22.349L128.084.299c-.559-.695-2.408.049-3.167-.033,6.196,35.414,18.999,79.009,39.814,109.235,6.213,9.022,15.731,13.092,24.592,18.773,10.157,6.511,18.717,15.213,30.651,19.07,11.584-3.695,20.162-12.5,30.172-19.335,8.438-5.762,17.867-9.672,23.878-18.514,19.826-29.168,32.197-73.716,36.678-107.944-.964-.101-3.457.144-4.106.87Z" fill="#fd00fd"/>
  <path id="zone-cuffs" d="M434.789,267.453c-9.092-4.413-20.202-6.692-28.727-12.134-14.343-9.155-26.446-21.393-35.76-36.248-38.998-62.194-38.544-127.752-16.271-195.403,4.586,2.312,10.658,2.438,14.925,7.331-9.275,26.04-13.867,52.606-14.187,80.612-.596,52.132,24.43,122.351,80.678,138.876l-.657,16.965ZM66.406,29.074c5.858,15.193,10.334,30.53,12.983,46.849,1.781,10.97,4.082,21.276,4.923,32.507,2.593,34.629-6.081,69.671-24.066,99.084-13.744,22.478-34.274,37.078-59.977,42.354-.759,6.148.302,11.908.532,17.309,11.226-4.025,24.34-5.496,34.656-11.848,42.805-26.356,64.867-83.754,65.647-132.808.556-34.975-7.068-68.761-20.282-100.273-4.245,2.158-10.018,2.291-14.417,6.826Z" fill="#fcfa01"/>
  <path id="zone-collar" d="M124.917.266c6.196,35.414,18.999,79.009,39.814,109.235,6.213,9.022,15.731,13.092,24.592,18.773,10.157,6.511,18.717,15.213,30.651,19.07,11.584-3.695,20.162-12.5,30.172-19.335,8.438-5.762,17.867-9.672,23.878-18.514,19.826-29.168,32.197-73.716,36.678-107.944,4.278.448,11.24,5.942,15.144,7.911-5.97,26.216-13.931,51.823-25.326,76.666-11.593,25.273-23.298,38.717-48.968,50.022-9.947,8.266-19.984,15.331-31.46,21.213-11.733-5.99-21.663-12.653-31.605-20.663-25.849-10.836-38.176-24.461-50.268-49.53-12.414-25.736-21.651-52.356-28.336-79.695,3.777-1.92,10.821-7.662,15.034-7.207Z" fill="#0600fa"/>
</svg>